<svg xmlns="http://www.w3.org/2000/svg" width="256.045" height="84.257" viewBox="0 0 256.045 84.257">
  <g id="OBJECTS" transform="translate(-475.3 -177.2)">
    <g id="Group_39666" data-name="Group 39666" transform="translate(475.3 177.2)">
      <path id="Path_37566" data-name="Path 37566" d="M537.106,199.6,525.3,192.784l6.894-6.894a4.664,4.664,0,1,0-1.611-1.611l-7.29,7.316-13.84-8a4.32,4.32,0,0,0-4.305,0l-13.84,8-7.316-7.316a4.664,4.664,0,1,0-1.611,1.611l6.894,6.894L477.466,199.6a4.314,4.314,0,0,0-2.139,3.724v31.959a4.314,4.314,0,0,0,2.139,3.724l19.387,11.2a3.246,3.246,0,0,1,1.057,2.958h0l-1.136,6.815a1.19,1.19,0,0,0,1.162,1.426,1.109,1.109,0,0,0,.555-.158L509,255.2a2.882,2.882,0,0,0,.4-.211l27.681-15.98a4.314,4.314,0,0,0,2.139-3.724V203.322A4.2,4.2,0,0,0,537.106,199.6ZM534.6,180.053a1.849,1.849,0,1,1-1.849,1.849A1.838,1.838,0,0,1,534.6,180.053ZM480,183.724a1.849,1.849,0,1,1,1.849-1.849A1.838,1.838,0,0,1,480,183.724Zm36.872,11.067c1.717,0,3.09,1.717,3.09,3.856s-1.373,3.856-3.09,3.856-3.09-1.717-3.09-3.856C513.783,196.534,515.157,194.791,516.874,194.791Zm-22.24,3.883c0-2.139,1.373-3.856,3.09-3.856s3.09,1.717,3.09,3.856-1.373,3.856-3.09,3.856S494.634,200.787,494.634,198.674Z" transform="translate(-475.3 -177.2)" fill="#036"/>
      <path id="Path_37567" data-name="Path 37567" d="M544.318,378.8H490.858a1.561,1.561,0,0,0-1.558,1.558v1.9a2.939,2.939,0,0,0,1.479,2.562l2.932,1.69a5.8,5.8,0,0,0,2.879.766h42.023a5.8,5.8,0,0,0,2.879-.766l2.932-1.69a2.939,2.939,0,0,0,1.479-2.562v-1.9A1.567,1.567,0,0,0,544.318,378.8Z" transform="translate(-485.602 -325.552)" fill="#f59121"/>
      <path id="Path_37568" data-name="Path 37568" d="M571.4,423.9H544.457a.336.336,0,0,0-.159.634l12.493,7.211a2.319,2.319,0,0,0,2.272,0l12.493-7.211A.336.336,0,0,0,571.4,423.9Z" transform="translate(-525.941 -358.74)" fill="#f59121"/>
      <path id="Path_37569" data-name="Path 37569" d="M544.318,333.7H490.858a1.561,1.561,0,0,0-1.558,1.558v5.362a1.561,1.561,0,0,0,1.558,1.558h53.459a1.561,1.561,0,0,0,1.558-1.558v-5.362A1.528,1.528,0,0,0,544.318,333.7Z" transform="translate(-485.602 -292.364)" fill="#f59121"/>
    </g>
    <g id="Group_39670" data-name="Group 39670" transform="translate(553.138 177.2)">
      <g id="Group_39667" data-name="Group 39667" transform="translate(0.026)">
        <path id="Path_37570" data-name="Path 37570" d="M797.305,203.956a13.38,13.38,0,0,1-13.365,13.365A13.185,13.185,0,0,1,776.386,215a3.255,3.255,0,0,1-3.064,2.219,3.19,3.19,0,0,1-3.222-3.17V180.422a3.2,3.2,0,1,1,6.392,0v12.361a13.858,13.858,0,0,1,7.448-2.219A13.386,13.386,0,0,1,797.305,203.956Zm-6.392,0a6.973,6.973,0,1,0-6.973,6.973A7,7,0,0,0,790.913,203.956Z" transform="translate(-770.1 -177.2)" fill="#036"/>
        <path id="Path_37571" data-name="Path 37571" d="M903.894,244.4H887.6a6.961,6.961,0,0,0,6.709,5.335,8.843,8.843,0,0,0,5.547-2.007,3.172,3.172,0,0,1,4.49.053,3.126,3.126,0,0,1-.053,4.49,14.711,14.711,0,0,1-9.984,3.751,13.259,13.259,0,0,1,0-26.518,11.534,11.534,0,0,1,2.324.211,12.789,12.789,0,0,1,8.558,6.075c.845,1.479,1.8,3.434,1.69,5.177a4.465,4.465,0,0,1-.423,1.532A2.808,2.808,0,0,1,903.894,244.4Zm-15.4-5.335h11.2a5.877,5.877,0,0,0-5.388-3.17A6.825,6.825,0,0,0,888.5,239.061Z" transform="translate(-851.782 -215.686)" fill="#036"/>
        <path id="Path_37572" data-name="Path 37572" d="M1007.594,244.4H991.3a6.962,6.962,0,0,0,6.709,5.335,8.844,8.844,0,0,0,5.547-2.007,3.172,3.172,0,0,1,4.49.053,3.126,3.126,0,0,1-.053,4.49,14.711,14.711,0,0,1-9.984,3.751,13.259,13.259,0,0,1,0-26.518,11.534,11.534,0,0,1,2.324.211,12.788,12.788,0,0,1,8.558,6.075c.845,1.479,1.8,3.434,1.691,5.177a4.464,4.464,0,0,1-.423,1.532A2.808,2.808,0,0,1,1007.594,244.4Zm-15.4-5.335h11.2a5.877,5.877,0,0,0-5.388-3.17A6.792,6.792,0,0,0,992.2,239.061Z" transform="translate(-928.092 -215.686)" fill="#036"/>
        <path id="Path_37573" data-name="Path 37573" d="M1117.319,214.951a3.2,3.2,0,0,1-6.392,0V203.383a5.441,5.441,0,1,0-10.882,0v11.569a3.19,3.19,0,0,1-3.222,3.17,3.225,3.225,0,0,1-3.222-3.17V181.222a3.27,3.27,0,0,1,3.222-3.222,3.235,3.235,0,0,1,3.222,3.222v11.622a11.84,11.84,0,0,1,17.274,10.512Z" transform="translate(-1008.155 -177.789)" fill="#036"/>
        <path id="Path_37574" data-name="Path 37574" d="M1205.728,192.962a3.293,3.293,0,0,1-3.328-3.222v-.264a3.275,3.275,0,1,1,6.551,0v.264A3.27,3.27,0,0,1,1205.728,192.962Zm0,31.035a3.3,3.3,0,0,1-3.328-3.275V200.3a3.276,3.276,0,0,1,6.551,0v20.417A3.281,3.281,0,0,1,1205.728,224Z" transform="translate(-1088.218 -183.823)" fill="#036"/>
        <path id="Path_37575" data-name="Path 37575" d="M1254.245,256.119h-.053a3.1,3.1,0,0,1-2.747-1.743l-9.931-19.836a3.161,3.161,0,0,1,1.426-4.226,3.116,3.116,0,0,1,4.173,1.426L1254.245,246l7.131-13.893a3.107,3.107,0,1,1,5.547,2.8l-9.931,19.466A3.1,3.1,0,0,1,1254.245,256.119Z" transform="translate(-1116.767 -216.051)" fill="#036"/>
        <path id="Path_37576" data-name="Path 37576" d="M1369.594,244.4h-16.3a6.962,6.962,0,0,0,6.709,5.335,8.844,8.844,0,0,0,5.547-2.007,3.172,3.172,0,0,1,4.49.053,3.126,3.126,0,0,1-.053,4.49,14.711,14.711,0,0,1-9.984,3.751,13.259,13.259,0,0,1,0-26.518,11.534,11.534,0,0,1,2.324.211,12.788,12.788,0,0,1,8.558,6.075c.845,1.479,1.8,3.434,1.69,5.177a4.463,4.463,0,0,1-.423,1.532A2.753,2.753,0,0,1,1369.594,244.4Zm-15.372-5.335h11.2a5.877,5.877,0,0,0-5.388-3.17A6.792,6.792,0,0,0,1354.222,239.061Z" transform="translate(-1194.478 -215.686)" fill="#036"/>
      </g>
      <g id="Group_39669" data-name="Group 39669" transform="translate(0 44.902)">
        <g id="Group_39668" data-name="Group 39668">
          <path id="Path_37577" data-name="Path 37577" d="M770,347.2h1.849v3.037H770Zm0,8.9h1.849V373.93H770Z" transform="translate(-770 -347.2)" fill="#036"/>
          <path id="Path_37578" data-name="Path 37578" d="M799.471,379.3a8.785,8.785,0,0,1,3.619.74,9.169,9.169,0,0,1,2.958,2.007,9.394,9.394,0,0,1,2.747,6.63v8.9h-1.849v-8.9a7.229,7.229,0,0,0-.581-2.905,7.284,7.284,0,0,0-3.962-3.962,7.228,7.228,0,0,0-2.905-.581,7.014,7.014,0,0,0-2.879.581,8.137,8.137,0,0,0-2.377,1.585,7.143,7.143,0,0,0-1.611,2.377,7.227,7.227,0,0,0-.581,2.905v8.9H790.2v-8.9a9,9,0,0,1,.74-3.645,9.282,9.282,0,0,1,2.007-2.985,9.608,9.608,0,0,1,2.958-2.007A8.454,8.454,0,0,1,799.471,379.3Z" transform="translate(-784.865 -370.822)" fill="#036"/>
          <path id="Path_37579" data-name="Path 37579" d="M871.2,363.5h1.849v4.675h6.735v1.849h-6.735V381.54a2.594,2.594,0,0,0,.819,1.955,2.709,2.709,0,0,0,2.007.819,2.8,2.8,0,0,0,2.773-2.773H880.5a5.312,5.312,0,0,1-.343,1.822,4.445,4.445,0,0,1-1,1.479,5.224,5.224,0,0,1-1.479,1,4.55,4.55,0,0,1-1.8.37,4.779,4.779,0,0,1-1.822-.37,4.445,4.445,0,0,1-1.479-1,4.876,4.876,0,0,1-1-1.479,4.779,4.779,0,0,1-.37-1.822Z" transform="translate(-844.47 -359.195)" fill="#036"/>
          <path id="Path_37580" data-name="Path 37580" d="M922.277,398a9,9,0,0,1-3.645-.74,9.285,9.285,0,0,1-2.985-2.007,9.609,9.609,0,0,1-2.007-2.958,9.231,9.231,0,0,1-.739-3.618,9,9,0,0,1,.739-3.645,9.285,9.285,0,0,1,2.007-2.985,9.395,9.395,0,0,1,6.63-2.747,8.784,8.784,0,0,1,3.619.74,9.17,9.17,0,0,1,2.958,2.007,9.394,9.394,0,0,1,2.747,6.63v.475a3.038,3.038,0,0,1-.026.475H914.907a7.109,7.109,0,0,0,.819,2.562,7.739,7.739,0,0,0,1.611,2.06,7.632,7.632,0,0,0,2.272,1.4,7.214,7.214,0,0,0,2.72.5,4.878,4.878,0,0,0,1.955-.4,5.286,5.286,0,0,0,1.638-1.109l1.32,1.321A6.953,6.953,0,0,1,922.277,398Zm7.369-10.222a7.663,7.663,0,0,0-.819-2.562,7.742,7.742,0,0,0-1.611-2.06,7.846,7.846,0,0,0-2.245-1.4,7.081,7.081,0,0,0-2.694-.5,7.313,7.313,0,0,0-2.721.5,7.431,7.431,0,0,0-2.271,1.4,7.623,7.623,0,0,0-1.611,2.06,7.111,7.111,0,0,0-.819,2.562Z" transform="translate(-875.156 -370.822)" fill="#036"/>
          <path id="Path_37581" data-name="Path 37581" d="M994.9,347.2h1.849v22.451a2.8,2.8,0,0,0,2.826,2.826v1.849a5.315,5.315,0,0,1-1.823-.343,4.448,4.448,0,0,1-1.479-1,5.007,5.007,0,0,1-1-1.506,4.781,4.781,0,0,1-.37-1.822Z" transform="translate(-935.498 -347.2)" fill="#036"/>
          <path id="Path_37582" data-name="Path 37582" d="M1022.3,347.2h1.849v22.451a2.8,2.8,0,0,0,2.826,2.826v1.849a5.314,5.314,0,0,1-1.822-.343,4.446,4.446,0,0,1-1.479-1,5.005,5.005,0,0,1-1-1.506,4.779,4.779,0,0,1-.37-1.822Z" transform="translate(-955.661 -347.2)" fill="#036"/>
          <path id="Path_37583" data-name="Path 37583" d="M1050,347.2h1.849v3.037H1050Zm0,8.9h1.849V373.93H1050Z" transform="translate(-976.044 -347.2)" fill="#036"/>
          <path id="Path_37584" data-name="Path 37584" d="M1079.424,379.5a8.784,8.784,0,0,1,3.619.74,9.167,9.167,0,0,1,2.958,2.007,9.394,9.394,0,0,1,2.747,6.63,8.661,8.661,0,0,1-.422,2.747,9.751,9.751,0,0,1-1.136,2.43,8.313,8.313,0,0,1-1.77,1.955,9.413,9.413,0,0,1-2.245,1.4,6.7,6.7,0,0,1,2.377,2.483,6.915,6.915,0,0,1,.872,3.434,6.683,6.683,0,0,1-.555,2.721,7.128,7.128,0,0,1-3.724,3.724,6.773,6.773,0,0,1-2.72.555v-1.849a4.722,4.722,0,0,0,2.007-.423,4.883,4.883,0,0,0,1.611-1.109,5.658,5.658,0,0,0,1.109-1.611,5.054,5.054,0,0,0,.423-2.007,4.722,4.722,0,0,0-.423-2.007,4.885,4.885,0,0,0-1.109-1.611,5.657,5.657,0,0,0-1.611-1.109,5.056,5.056,0,0,0-2.007-.423,8.784,8.784,0,0,1-3.619-.74,9.167,9.167,0,0,1-2.958-2.007,9.608,9.608,0,0,1-2.007-2.958,9.232,9.232,0,0,1-.74-3.619,9,9,0,0,1,.74-3.645,9.285,9.285,0,0,1,2.007-2.985,9.61,9.61,0,0,1,2.958-2.007A9.816,9.816,0,0,1,1079.424,379.5Zm0,1.9a7.014,7.014,0,0,0-2.879.581,8.134,8.134,0,0,0-2.377,1.585,7.144,7.144,0,0,0-1.611,2.377,7.227,7.227,0,0,0-.581,2.905,7.013,7.013,0,0,0,.581,2.879,7.613,7.613,0,0,0,3.988,3.988,7.1,7.1,0,0,0,2.879.581,7.227,7.227,0,0,0,2.905-.581,7.143,7.143,0,0,0,2.377-1.611,8.139,8.139,0,0,0,1.585-2.377,7.1,7.1,0,0,0,.581-2.879,7.227,7.227,0,0,0-.581-2.905,7.285,7.285,0,0,0-3.962-3.962A7.138,7.138,0,0,0,1079.424,381.4Z" transform="translate(-990.835 -370.969)" fill="#036"/>
          <path id="Path_37585" data-name="Path 37585" d="M1159.976,398a9,9,0,0,1-3.645-.74,9.283,9.283,0,0,1-2.985-2.007,9.608,9.608,0,0,1-2.007-2.958,9.23,9.23,0,0,1-.74-3.618,9,9,0,0,1,.74-3.645,9.284,9.284,0,0,1,2.007-2.985,9.394,9.394,0,0,1,6.63-2.747,8.784,8.784,0,0,1,3.619.74,9.167,9.167,0,0,1,2.958,2.007,9.4,9.4,0,0,1,2.747,6.63v.475a3.038,3.038,0,0,1-.026.475h-16.719a7.116,7.116,0,0,0,.819,2.562,7.742,7.742,0,0,0,1.611,2.06,7.63,7.63,0,0,0,2.271,1.4,7.215,7.215,0,0,0,2.721.5,4.879,4.879,0,0,0,1.955-.4,5.286,5.286,0,0,0,1.638-1.109l1.321,1.321a7.123,7.123,0,0,1-2.192,1.479A6.681,6.681,0,0,1,1159.976,398Zm7.369-10.222a7.667,7.667,0,0,0-.819-2.562,7.746,7.746,0,0,0-1.611-2.06,7.846,7.846,0,0,0-2.245-1.4,7.081,7.081,0,0,0-2.694-.5,7.313,7.313,0,0,0-2.721.5,7.43,7.43,0,0,0-2.271,1.4,7.627,7.627,0,0,0-1.611,2.06,7.111,7.111,0,0,0-.819,2.562Z" transform="translate(-1050.073 -370.822)" fill="#036"/>
          <path id="Path_37586" data-name="Path 37586" d="M1242.071,379.3a8.784,8.784,0,0,1,3.619.74,9.168,9.168,0,0,1,2.958,2.007,9.393,9.393,0,0,1,2.747,6.63v8.9h-1.849v-8.9a7.227,7.227,0,0,0-.581-2.905,7.283,7.283,0,0,0-3.962-3.962,7.228,7.228,0,0,0-2.906-.581,7.015,7.015,0,0,0-2.879.581,8.136,8.136,0,0,0-2.377,1.585,7.141,7.141,0,0,0-1.611,2.377,7.224,7.224,0,0,0-.581,2.905v8.9H1232.8v-8.9a9,9,0,0,1,.74-3.645,9.282,9.282,0,0,1,2.007-2.985,9.607,9.607,0,0,1,2.958-2.007A8.286,8.286,0,0,1,1242.071,379.3Z" transform="translate(-1110.562 -370.822)" fill="#036"/>
          <path id="Path_37587" data-name="Path 37587" d="M1322.724,397.3a8.784,8.784,0,0,1-3.619-.74,9.169,9.169,0,0,1-2.958-2.007,9.608,9.608,0,0,1-2.007-2.958,9.228,9.228,0,0,1-.74-3.619,9,9,0,0,1,.74-3.645,9.284,9.284,0,0,1,2.007-2.985,9.608,9.608,0,0,1,2.958-2.007,9.23,9.23,0,0,1,3.619-.74,6.682,6.682,0,0,1,2.72.555,7.169,7.169,0,0,1,2.219,1.505l-1.321,1.321a5.283,5.283,0,0,0-1.638-1.109,5.041,5.041,0,0,0-2.007-.4,7.014,7.014,0,0,0-2.879.581,8.138,8.138,0,0,0-2.377,1.585,7.146,7.146,0,0,0-1.611,2.377,7.229,7.229,0,0,0-.581,2.905,7.015,7.015,0,0,0,.581,2.879,7.614,7.614,0,0,0,3.988,3.988,7.1,7.1,0,0,0,2.879.581,5.134,5.134,0,0,0,2.007-.4,5.282,5.282,0,0,0,1.638-1.109l1.321,1.321a7.584,7.584,0,0,1-2.219,1.479A5.653,5.653,0,0,1,1322.724,397.3Z" transform="translate(-1169.873 -370.306)" fill="#036"/>
          <path id="Path_37588" data-name="Path 37588" d="M1383.276,398a9,9,0,0,1-3.645-.74,9.283,9.283,0,0,1-2.985-2.007,9.608,9.608,0,0,1-2.007-2.958,9.23,9.23,0,0,1-.74-3.618,9,9,0,0,1,.74-3.645,9.284,9.284,0,0,1,2.007-2.985,9.395,9.395,0,0,1,6.63-2.747,8.784,8.784,0,0,1,3.619.74,9.169,9.169,0,0,1,2.958,2.007,9.4,9.4,0,0,1,2.747,6.63v.475a3.01,3.01,0,0,1-.027.475h-16.667a7.116,7.116,0,0,0,.819,2.562,7.742,7.742,0,0,0,1.611,2.06,7.631,7.631,0,0,0,2.271,1.4,7.215,7.215,0,0,0,2.721.5,4.879,4.879,0,0,0,1.954-.4,5.285,5.285,0,0,0,1.638-1.109l1.321,1.321a6.954,6.954,0,0,1-4.966,2.034Zm7.369-10.222a7.667,7.667,0,0,0-.819-2.562,7.747,7.747,0,0,0-1.611-2.06,7.851,7.851,0,0,0-2.245-1.4,7.081,7.081,0,0,0-2.694-.5,7.313,7.313,0,0,0-2.721.5,7.435,7.435,0,0,0-2.271,1.4,7.629,7.629,0,0,0-1.611,2.06,7.111,7.111,0,0,0-.819,2.562Z" transform="translate(-1214.393 -370.822)" fill="#036"/>
        </g>
      </g>
    </g>
  </g>
</svg>
